<?xml version="1.0" encoding="iso-8859-1"?>
<!-- Uploaded to: SVG Repo, www.svgrepo.com, Generator: SVG Repo Mixer Tools -->
<svg height="800px" width="800px" version="1.1" id="Layer_1" xmlns="http://www.w3.org/2000/svg" xmlns:xlink="http://www.w3.org/1999/xlink" 
	 viewBox="0 0 512.002 512.002" xml:space="preserve">
<path style="fill:#5D9BEB;" d="M0.001,256.006c0,141.395,114.606,255.998,255.996,255.994
	c141.398,0.004,256.004-114.598,256.004-255.994C512.01,114.61,397.395,0,255.997,0C114.607,0,0.001,114.614,0.001,256.006z"/>
<path style="fill:#4988DB;" d="M510.001,287.522c-0.273-0.277-0.545-0.556-0.826-0.827c-0.38-0.38-174.779-174.789-175.164-175.162
	c-15.758-15.806-37.7-25.657-61.968-25.657H131.953c-3.915,0-7.089,3.173-7.089,7.089c0,2.252,1.117,4.172,2.755,5.47
	c0.34,0.43,0.709,0.798,1.138,1.138c0.34,0.429,38.222,38.315,38.638,38.65v273.724h-35.443c-3.915,0-7.089,3.173-7.089,7.089
	c0,2.253,1.118,4.172,2.756,5.47c0.34,0.43,0.708,0.798,1.138,1.138c0.34,0.429,0.708,0.798,1.137,1.137
	c0.34,0.429,80.329,80.418,80.757,80.757c0.138,0.175,0.313,0.305,0.462,0.462c14.58,2.579,29.561,4.001,44.882,4.001
	C386.717,512.004,494.46,414.034,510.001,287.522z"/>
<path style="fill:#F4F6F9;" d="M315.717,244.309c25.713-14.778,43.067-42.094,43.067-73.371c0-46.902-38.91-85.061-86.74-85.061
	H131.953c-3.915,0-7.088,3.174-7.088,7.088c0,3.914,3.174,7.088,7.088,7.088h35.442v311.893h-35.442
	c-3.915,0-7.088,3.174-7.088,7.088c0,3.915,3.174,7.088,7.088,7.088h162.789c50.948,0,92.396-41.337,92.396-92.15
	C387.138,290.365,356.578,253.821,315.717,244.309z M272.044,100.053c40.011,0,72.563,31.797,72.563,70.884
	s-32.553,70.884-72.563,70.884h-90.471V100.053H272.044z M294.741,411.947H181.572V256h113.17c43.13,0,78.219,34.978,78.219,77.973
	S337.871,411.947,294.741,411.947z"/>
</svg>